<?xml version="1.0" encoding="UTF-8" ?>
<!DOCTYPE svg PUBLIC "-//W3C//DTD SVG 1.1//EN" "http://www.w3.org/Graphics/SVG/1.1/DTD/svg11.dtd">
<svg width="3000pt" height="1000pt" viewBox="0 0 3000 1000" version="1.1" xmlns="http://www.w3.org/2000/svg">
<g id="#000000ff">
<path id="CHA" class="cls-1" d="M779.447,627.144q-23.13,34.379-57.5,50a173.2,173.2,0,0,1-72.5,15.625q-42.51,0-76.562-15.577a173.316,173.316,0,0,1-57.813-42.05,187.549,187.549,0,0,1-36.562-61.358A211.483,211.483,0,0,1,465.7,500.269a216.127,216.127,0,0,1,12.5-73.506,183.466,183.466,0,0,1,36.25-61.367,173.58,173.58,0,0,1,57.813-42.051q34.058-15.572,77.187-15.576a151.313,151.313,0,0,1,39.688,5A170.986,170.986,0,0,1,723.2,325.894a125.89,125.89,0,0,1,27.188,18.75,112.49,112.49,0,0,1,18.437,21.25l37.5-27.5A129.594,129.594,0,0,0,778.2,309.243a187.372,187.372,0,0,0-37.5-22.109,227.619,227.619,0,0,0-91.875-19.365q-49.38,0-91.562,17.5a223.067,223.067,0,0,0-73.125,48.437Q453.2,364.644,435.7,407.144t-17.5,93.125q0,50.625,17.188,93.125T483.2,666.831q30.615,30.938,73.125,48.438t92.5,17.5a217.278,217.278,0,0,0,55.313-6.661,205.832,205.832,0,0,0,46.25-18.095,177.045,177.045,0,0,0,36.875-26.465,184.911,184.911,0,0,0,27.187-31.9Zm237.493,94.375h45V512.144h241.25V721.519h45v-442.5h-45V470.894H1061.94V279.019h-45v442.5Zm618.74-116.25h228.75l48.75,116.25h50l-190-442.5h-43.75l-191.25,442.5h49.38Zm114.38-276.25,97.5,235h-195Z"/>
<path fill="#000000" opacity="1.00" d=" M 2337.41 266.44 C 2384.48 263.83 2432.25 276.68 2472.01 302.00 C 2510.37 326.58 2541.42 362.55 2559.62 404.35 C 2585.98 462.93 2586.59 532.33 2561.48 591.44 C 2549.44 620.17 2531.71 646.62 2509.26 668.26 C 2464.69 712.63 2401.00 736.81 2338.25 733.66 C 2296.44 731.62 2255.20 718.01 2220.59 694.42 C 2163.77 656.21 2125.75 591.90 2119.35 523.76 C 2113.29 466.92 2129.14 408.01 2162.78 361.79 C 2202.65 305.81 2268.67 269.46 2337.41 266.44 M 2185.55 399.56 C 2149.90 457.86 2148.62 535.25 2182.25 594.72 C 2211.44 648.63 2267.74 686.87 2328.84 693.19 C 2329.96 688.61 2331.89 683.75 2329.85 679.11 C 2327.95 675.03 2329.77 670.30 2327.68 666.33 C 2323.97 658.82 2319.57 651.39 2312.97 646.06 C 2304.08 638.50 2295.75 630.19 2289.44 620.31 C 2299.25 616.49 2309.63 619.78 2319.66 620.43 C 2324.15 623.46 2329.36 627.25 2335.10 625.15 C 2342.46 621.12 2351.46 619.09 2356.51 611.77 C 2351.86 605.77 2340.47 605.59 2340.64 596.32 C 2345.35 593.11 2351.19 591.34 2354.80 586.68 C 2351.90 586.01 2349.05 585.30 2346.16 584.78 C 2341.92 583.69 2338.25 587.21 2334.07 586.99 C 2330.72 586.80 2327.50 585.79 2324.32 584.88 C 2329.24 576.93 2338.28 573.64 2345.72 568.66 C 2350.44 564.92 2357.43 567.17 2361.56 562.33 C 2358.73 560.86 2355.83 559.56 2352.90 558.37 C 2349.51 553.19 2342.42 553.41 2337.68 549.97 C 2337.23 544.72 2340.24 540.45 2344.12 537.29 C 2349.34 539.51 2353.69 534.98 2355.96 530.77 C 2356.95 526.88 2353.40 523.89 2353.03 520.28 C 2354.57 517.74 2357.90 516.74 2360.35 515.10 C 2359.76 513.66 2359.20 512.23 2358.67 510.80 C 2357.13 511.62 2355.62 512.46 2354.13 513.28 C 2353.20 509.14 2352.88 504.91 2352.82 500.68 C 2350.79 499.54 2348.85 498.27 2346.96 496.96 C 2340.80 507.77 2326.32 516.25 2314.27 509.75 C 2309.37 508.17 2310.26 501.20 2305.37 499.59 C 2299.74 497.61 2293.97 501.75 2288.26 499.89 C 2293.46 493.70 2301.98 492.40 2307.65 486.88 C 2304.04 486.96 2300.60 487.99 2297.28 489.26 C 2298.31 486.35 2298.97 483.31 2299.33 480.24 C 2296.84 479.00 2294.21 477.92 2291.40 478.32 C 2287.50 479.07 2285.54 475.02 2283.20 472.74 C 2279.24 481.65 2277.32 491.12 2274.17 500.21 C 2272.84 499.33 2271.56 498.45 2270.27 497.59 C 2270.29 496.82 2270.34 496.05 2270.42 495.28 C 2269.24 494.46 2268.07 493.64 2266.95 492.82 C 2265.23 495.39 2264.04 498.25 2263.56 501.31 C 2265.26 500.57 2266.94 499.69 2268.65 498.91 C 2269.12 499.99 2269.61 501.08 2270.14 502.17 C 2267.84 503.84 2265.58 505.55 2263.30 507.23 C 2262.59 514.94 2259.29 522.26 2259.91 530.12 C 2258.98 529.40 2258.09 528.70 2257.21 528.00 C 2256.37 529.32 2255.54 530.66 2254.74 531.99 C 2253.42 532.01 2252.12 532.04 2250.85 532.07 C 2249.20 527.72 2252.37 523.67 2251.80 519.33 C 2250.15 516.96 2247.35 515.69 2245.15 513.93 C 2244.15 515.96 2243.17 518.00 2242.14 520.01 C 2244.36 525.29 2245.72 530.99 2244.74 536.74 C 2243.30 534.08 2242.21 531.25 2241.17 528.44 C 2239.84 529.64 2238.53 530.88 2237.29 532.13 C 2232.29 531.99 2227.31 530.58 2223.39 527.39 C 2224.87 526.76 2226.40 526.16 2227.95 525.58 C 2226.98 523.64 2226.02 521.71 2225.02 519.81 C 2225.30 518.67 2225.62 517.54 2225.96 516.41 C 2224.79 515.98 2223.65 515.54 2222.54 515.11 C 2224.34 515.00 2226.18 514.93 2228.05 514.86 C 2228.02 514.22 2227.98 512.93 2227.96 512.29 C 2223.88 510.48 2219.87 507.26 2220.60 502.29 C 2218.56 501.66 2216.54 501.03 2214.54 500.40 C 2218.11 500.15 2221.63 499.38 2224.89 497.83 C 2225.28 499.82 2225.67 501.81 2226.10 503.80 C 2226.89 500.58 2227.48 497.31 2228.19 494.06 C 2227.75 493.67 2226.87 492.90 2226.43 492.51 C 2226.31 491.43 2226.21 490.35 2226.14 489.28 C 2225.64 494.38 2222.43 497.82 2217.25 498.15 C 2215.22 495.41 2213.20 492.66 2211.46 489.75 C 2212.76 490.71 2214.10 491.72 2215.41 492.75 C 2216.13 486.59 2225.28 491.45 2225.59 484.97 C 2224.03 485.16 2222.55 485.38 2221.06 485.61 C 2220.98 484.92 2220.81 483.52 2220.72 482.82 C 2218.39 483.12 2216.09 483.47 2213.81 483.86 C 2212.39 482.28 2210.95 480.77 2209.51 479.26 C 2210.80 479.53 2212.12 479.79 2213.47 480.05 C 2211.47 478.37 2209.42 476.76 2207.47 475.06 C 2208.41 474.37 2209.38 473.68 2210.38 473.00 C 2210.69 473.27 2211.32 473.79 2211.63 474.06 C 2211.43 474.93 2211.26 475.80 2211.12 476.69 C 2214.40 478.38 2217.74 479.98 2221.21 481.29 C 2224.86 479.22 2229.35 479.35 2232.83 476.91 C 2225.47 476.77 2221.89 470.04 2216.10 466.78 C 2214.64 467.25 2213.22 467.73 2211.82 468.21 C 2212.60 466.94 2213.44 465.70 2214.26 464.44 C 2216.10 465.00 2217.92 465.51 2219.84 465.94 C 2215.48 463.35 2210.59 461.34 2208.44 456.36 C 2214.09 457.94 2220.03 458.03 2225.70 459.65 C 2223.16 455.40 2218.97 453.01 2213.97 453.79 C 2213.97 453.07 2213.98 451.63 2213.99 450.91 C 2219.08 448.94 2224.78 450.32 2229.78 447.88 C 2227.23 441.87 2217.07 437.08 2223.35 430.03 C 2223.99 430.01 2225.29 429.98 2225.93 429.97 C 2225.78 430.83 2225.65 431.69 2225.55 432.55 C 2229.64 435.95 2233.60 440.57 2239.43 440.29 C 2237.59 437.05 2235.69 433.86 2233.75 430.69 C 2232.90 431.30 2232.11 431.92 2231.33 432.54 C 2229.92 431.44 2228.49 430.37 2227.08 429.32 C 2227.52 429.16 2228.41 428.85 2228.85 428.69 C 2228.46 427.86 2228.11 427.05 2227.79 426.23 C 2224.81 426.56 2221.83 426.49 2218.89 426.06 C 2219.31 423.71 2219.75 421.37 2220.15 419.02 C 2221.86 420.20 2223.59 421.36 2225.36 422.51 C 2229.84 419.36 2226.72 415.35 2223.81 412.45 C 2225.31 411.79 2226.82 411.12 2228.37 410.46 C 2227.60 408.92 2226.82 407.39 2226.05 405.87 C 2226.56 404.75 2227.11 403.63 2227.68 402.51 C 2229.72 404.39 2231.61 406.41 2233.47 408.49 C 2235.12 406.59 2236.39 404.36 2235.44 401.80 C 2233.90 402.22 2232.43 402.67 2230.96 403.12 C 2230.61 402.69 2229.92 401.83 2229.57 401.39 C 2227.85 402.03 2226.16 402.72 2224.47 403.34 C 2224.58 400.54 2224.61 397.73 2224.86 394.94 C 2224.23 394.33 2223.63 393.72 2223.06 393.12 C 2224.11 391.10 2225.11 389.04 2226.11 386.99 C 2224.08 386.11 2222.04 385.27 2220.00 384.49 C 2219.97 383.39 2219.96 382.29 2219.97 381.20 C 2224.29 379.11 2228.43 376.45 2233.15 375.29 C 2239.78 376.52 2245.99 380.87 2253.03 379.27 C 2262.56 379.58 2270.43 373.59 2279.44 371.58 C 2284.77 370.55 2288.89 366.79 2293.82 364.75 C 2297.92 363.04 2299.20 357.91 2303.35 356.33 C 2310.32 355.02 2317.34 356.96 2324.06 358.68 C 2330.73 358.81 2334.02 352.19 2339.06 349.05 C 2345.10 345.98 2351.92 344.50 2358.71 344.94 C 2359.61 346.15 2360.55 347.37 2361.48 348.59 C 2363.15 348.71 2364.82 348.83 2366.52 349.00 C 2366.30 351.76 2366.48 355.02 2369.15 356.63 C 2371.70 356.20 2374.19 355.38 2376.75 354.83 C 2376.87 355.68 2377.10 357.37 2377.22 358.22 C 2378.22 357.30 2379.23 356.39 2380.30 355.50 C 2379.34 353.70 2378.41 351.89 2377.43 350.13 C 2377.44 351.57 2377.49 353.02 2377.57 354.47 C 2376.47 353.79 2375.40 353.11 2374.37 352.44 C 2375.20 349.72 2377.83 348.87 2380.32 348.20 C 2380.99 346.88 2381.67 345.57 2382.38 344.25 C 2384.20 343.96 2386.05 343.66 2387.91 343.33 C 2388.03 344.09 2388.29 345.63 2388.42 346.40 C 2391.68 342.81 2396.07 341.20 2400.91 342.13 C 2392.82 336.39 2383.09 339.75 2375.70 344.78 C 2373.86 343.54 2371.96 342.40 2370.05 341.34 C 2375.91 338.08 2381.92 333.92 2388.91 334.04 C 2395.26 335.10 2400.46 339.31 2406.42 341.51 C 2418.72 345.65 2429.44 353.43 2439.23 361.76 C 2447.16 371.03 2457.17 379.68 2459.94 392.11 C 2462.16 401.59 2465.94 410.62 2467.91 420.15 C 2469.81 426.69 2474.49 431.94 2476.78 438.34 C 2480.95 442.11 2483.69 446.95 2486.02 452.03 C 2482.35 458.92 2477.76 465.96 2477.83 474.04 C 2477.81 477.26 2474.49 479.57 2475.06 482.85 C 2475.69 487.36 2477.43 491.68 2480.02 495.43 C 2478.35 494.49 2476.69 493.59 2475.06 492.67 C 2474.23 496.35 2473.40 500.28 2470.17 502.66 C 2470.04 505.00 2469.98 507.35 2469.97 509.70 C 2469.07 509.90 2467.28 510.31 2466.38 510.51 C 2467.33 513.44 2469.15 515.94 2471.18 518.23 C 2468.91 517.83 2466.70 517.40 2464.49 516.96 C 2458.94 526.85 2461.75 538.22 2460.84 548.94 C 2458.45 559.62 2450.21 572.41 2437.56 570.06 C 2435.46 582.14 2433.17 594.36 2427.41 605.32 C 2425.84 610.41 2420.41 613.50 2419.98 619.00 C 2416.89 639.92 2415.31 661.11 2415.05 682.25 C 2455.27 667.06 2490.11 638.05 2512.07 601.07 C 2539.74 556.05 2547.22 499.52 2533.35 448.65 C 2524.00 413.71 2504.54 381.53 2478.10 356.90 C 2442.94 324.20 2395.20 304.77 2347.00 305.98 C 2281.64 305.70 2218.38 343.36 2185.55 399.56 M 2338.92 361.01 C 2339.21 362.20 2339.76 363.32 2340.29 364.45 C 2345.03 361.33 2350.08 358.72 2355.01 355.88 C 2355.00 355.10 2354.99 353.54 2354.98 352.76 C 2349.01 353.87 2342.54 355.75 2338.92 361.01 M 2381.00 354.00 C 2381.00 354.50 2381.00 355.50 2381.00 356.00 C 2382.31 356.00 2383.64 355.99 2385.00 356.00 C 2385.00 355.50 2385.00 354.50 2385.00 354.00 C 2383.64 353.99 2382.30 353.99 2381.00 354.00 M 2385.29 360.09 C 2386.85 359.71 2388.47 359.30 2390.08 358.89 C 2389.95 357.40 2389.84 355.91 2389.76 354.42 C 2388.03 356.13 2386.54 358.03 2385.29 360.09 M 2377.39 362.39 C 2378.56 362.93 2379.76 363.47 2380.98 364.02 C 2381.44 362.81 2381.91 361.59 2382.41 360.38 C 2383.06 360.20 2384.35 359.84 2385.00 359.66 C 2384.99 358.90 2384.98 357.40 2384.97 356.64 C 2381.80 357.62 2378.49 358.95 2377.39 362.39 M 2389.18 365.43 C 2391.13 367.77 2394.07 368.63 2396.90 369.42 C 2396.91 367.96 2396.95 366.50 2397.02 365.05 C 2394.39 365.15 2391.77 365.24 2389.18 365.43 M 2295.13 370.32 C 2290.94 372.87 2298.65 372.96 2295.13 370.32 M 2292.14 374.31 C 2287.95 376.83 2295.65 376.97 2292.14 374.31 M 2266.62 392.50 C 2273.70 388.62 2280.09 383.13 2283.43 375.61 C 2277.40 380.78 2271.69 386.38 2266.62 392.50 M 2273.03 396.67 C 2268.34 395.04 2264.70 398.52 2261.33 401.18 C 2262.48 408.00 2268.80 402.59 2272.90 401.77 C 2273.88 402.52 2274.89 403.28 2275.92 404.04 C 2276.04 402.80 2276.22 401.56 2276.39 400.33 C 2275.96 397.61 2276.55 394.90 2277.12 392.26 C 2278.37 392.25 2279.65 392.25 2280.95 392.24 C 2281.94 390.83 2282.95 389.44 2284.03 388.07 C 2285.94 390.72 2286.57 393.86 2286.13 397.07 C 2286.97 396.61 2287.83 396.14 2288.72 395.69 C 2289.03 393.67 2289.39 391.67 2289.80 389.67 C 2288.86 390.09 2287.95 390.51 2287.07 390.93 C 2286.90 388.41 2286.71 385.89 2286.51 383.38 C 2291.50 385.46 2296.14 388.67 2301.69 389.13 C 2296.90 385.60 2289.30 384.83 2288.24 377.81 C 2284.69 385.47 2276.20 388.89 2273.03 396.67 M 2242.28 386.35 C 2242.37 385.63 2242.57 384.19 2242.67 383.47 C 2237.69 384.26 2233.55 387.33 2230.50 391.21 C 2233.46 390.06 2236.41 388.86 2239.34 387.57 C 2239.79 387.93 2240.26 388.30 2240.77 388.67 C 2244.00 387.12 2247.43 385.66 2249.74 382.77 C 2247.14 383.74 2244.70 385.04 2242.28 386.35 M 2244.67 401.11 C 2250.36 400.04 2256.08 398.97 2261.90 398.81 C 2262.42 393.32 2265.77 388.77 2266.87 383.45 C 2257.35 385.88 2249.57 392.76 2244.67 401.11 M 2393.03 387.29 C 2393.01 387.96 2392.98 389.31 2392.97 389.98 C 2394.27 389.98 2395.60 389.99 2396.96 390.00 C 2396.97 388.70 2397.00 387.40 2397.07 386.11 C 2395.70 386.51 2394.34 386.90 2393.03 387.29 M 2244.43 390.80 C 2244.07 390.27 2243.35 389.20 2242.99 388.67 C 2240.00 390.27 2236.93 391.81 2233.54 392.19 C 2234.45 394.42 2235.16 396.72 2235.91 399.03 C 2238.66 398.84 2241.41 398.41 2244.13 397.81 C 2246.34 393.93 2250.73 391.98 2252.70 387.90 C 2249.91 388.81 2247.18 389.84 2244.43 390.80 M 2312.02 392.93 C 2308.67 400.36 2305.04 408.07 2306.00 416.48 C 2308.53 411.10 2310.89 405.63 2312.54 399.91 C 2314.47 397.87 2316.05 395.54 2317.52 393.15 C 2315.65 393.06 2313.83 392.99 2312.02 392.93 M 2230.31 398.31 C 2229.06 399.66 2231.31 401.91 2232.69 400.70 C 2233.89 399.34 2231.63 397.08 2230.31 398.31 M 2288.15 399.31 C 2283.95 401.82 2291.64 401.98 2288.15 399.31 M 2256.40 403.25 C 2255.23 403.18 2254.04 403.09 2252.94 403.03 C 2252.60 405.14 2252.35 407.26 2252.12 409.38 C 2254.78 407.92 2257.46 406.48 2260.09 404.95 C 2259.98 403.46 2259.89 401.98 2259.83 400.50 C 2258.63 401.38 2257.50 402.30 2256.40 403.25 M 2238.17 405.17 C 2237.12 409.79 2242.79 404.17 2238.17 405.17 M 2291.57 414.04 C 2294.16 411.52 2295.04 407.95 2295.11 404.44 C 2293.49 407.46 2292.23 410.68 2291.57 414.04 M 2298.41 407.36 C 2295.78 412.68 2292.40 417.74 2287.70 421.43 C 2288.82 419.11 2290.13 416.89 2291.33 414.60 C 2286.08 421.38 2277.16 423.20 2271.31 429.35 C 2273.54 432.82 2277.29 433.98 2281.04 432.05 C 2292.10 427.09 2300.36 417.20 2305.62 406.47 C 2303.20 406.84 2300.81 407.15 2298.41 407.36 M 2308.58 421.57 C 2314.21 419.67 2318.24 415.09 2322.27 410.95 C 2321.74 410.59 2320.68 409.85 2320.15 409.49 C 2320.45 408.23 2320.73 406.96 2321.08 405.71 C 2315.25 409.38 2310.82 415.07 2308.58 421.57 M 2278.26 415.80 C 2281.19 413.78 2283.48 410.95 2284.37 407.46 C 2281.88 409.88 2279.80 412.69 2278.26 415.80 M 2316.32 420.85 C 2320.82 418.04 2324.75 414.39 2328.47 410.62 C 2323.59 412.84 2318.55 415.69 2316.32 420.85 M 2267.29 420.18 C 2266.35 421.89 2265.45 423.62 2264.59 425.36 C 2268.79 424.80 2272.80 422.97 2274.70 418.94 C 2272.20 419.30 2269.75 419.74 2267.29 420.18 M 2345.61 427.31 C 2346.72 426.48 2347.88 425.64 2349.04 424.81 C 2348.95 423.91 2348.76 422.12 2348.66 421.23 C 2346.60 422.63 2345.81 424.92 2345.61 427.31 M 2340.07 427.28 C 2339.99 428.53 2339.94 429.79 2339.93 431.05 C 2340.92 430.58 2341.94 430.13 2342.99 429.68 C 2342.97 428.02 2342.96 426.36 2343.00 424.71 C 2341.99 425.56 2341.01 426.42 2340.07 427.28 M 2304.33 434.20 C 2307.74 432.85 2311.24 431.45 2315.00 431.65 C 2315.00 430.95 2314.98 429.55 2314.98 428.85 C 2310.98 429.67 2305.90 429.59 2304.33 434.20 M 2302.13 432.19 C 2299.08 435.69 2306.76 433.31 2302.13 432.19 M 2301.29 442.96 C 2304.22 443.18 2307.17 442.64 2309.70 441.04 C 2306.72 440.81 2303.80 441.36 2301.29 442.96 M 2253.96 458.20 C 2253.99 459.99 2254.04 461.78 2254.17 463.58 C 2259.66 461.27 2264.40 457.55 2269.02 453.84 C 2268.65 452.61 2268.30 451.39 2267.99 450.17 C 2269.30 450.05 2270.64 449.94 2272.01 449.84 C 2271.98 448.10 2271.96 446.36 2271.97 444.64 C 2267.12 450.49 2261.15 455.54 2253.96 458.20 M 2223.37 453.24 C 2224.62 455.89 2226.18 458.40 2228.14 460.61 C 2227.42 458.70 2226.62 456.85 2225.82 454.99 C 2226.60 454.30 2227.40 453.62 2228.25 452.94 C 2226.59 453.03 2224.96 453.13 2223.37 453.24 M 2222.36 461.72 C 2221.89 462.38 2220.95 463.71 2220.49 464.37 C 2223.16 466.53 2226.16 468.26 2229.41 469.45 C 2227.85 466.22 2225.31 463.68 2222.36 461.72 M 2252.26 467.27 C 2255.18 466.74 2258.06 465.83 2260.73 464.46 C 2257.59 464.41 2253.49 463.35 2252.26 467.27 M 2244.67 464.65 C 2244.45 466.72 2244.18 468.79 2243.93 470.86 C 2246.21 469.34 2250.31 469.37 2251.14 466.42 C 2249.00 465.69 2246.83 465.18 2244.67 464.65 M 2347.81 481.62 C 2351.37 480.42 2351.62 483.10 2351.29 485.92 C 2352.05 486.41 2352.85 486.90 2353.67 487.41 C 2353.50 482.73 2353.86 477.91 2351.52 473.65 C 2350.65 476.46 2349.42 479.15 2347.81 481.62 M 2226.00 482.00 C 2226.00 482.75 2226.00 484.25 2226.00 485.00 C 2226.75 485.00 2228.25 485.00 2229.00 485.00 C 2229.00 484.25 2229.00 482.75 2229.00 482.00 C 2228.25 482.00 2226.75 482.00 2226.00 482.00 M 2245.14 489.31 C 2240.95 491.84 2248.65 491.96 2245.14 489.31 M 2232.30 497.92 C 2236.97 498.81 2241.37 497.09 2244.73 493.86 C 2240.14 492.33 2235.78 495.27 2232.30 497.92 Z" />
<path fill="#000000" opacity="1.00" d=" M 2369.09 344.52 C 2373.62 344.32 2367.37 348.98 2369.09 344.52 Z" />
<path fill="#000000" opacity="1.00" d=" M 2207.74 428.06 C 2211.41 425.18 2215.68 425.12 2218.82 428.82 C 2216.71 428.67 2214.64 428.41 2212.58 428.17 C 2212.63 431.50 2213.50 434.73 2214.60 437.86 C 2210.82 435.86 2209.89 431.40 2207.74 428.06 Z" />
<path fill="#000000" opacity="1.00" d=" M 2211.31 439.91 C 2213.76 440.29 2216.19 440.87 2218.61 441.56 C 2215.91 443.16 2213.30 441.98 2211.31 439.91 Z" />
<path fill="#000000" opacity="1.00" d=" M 2206.04 449.34 C 2207.02 448.87 2208.02 448.40 2209.04 447.93 C 2208.99 449.28 2208.96 450.64 2208.97 452.01 C 2208.21 452.00 2206.71 451.98 2205.95 451.97 C 2205.97 451.31 2206.02 450.00 2206.04 449.34 Z" />
<path fill="#000000" opacity="1.00" d=" M 2215.19 472.25 C 2220.26 471.95 2213.08 477.24 2215.19 472.25 Z" />
<path fill="#000000" opacity="1.00" d=" M 2222.17 475.17 C 2226.78 474.15 2221.13 479.79 2222.17 475.17 Z" />
<path fill="#000000" opacity="1.00" d=" M 2205.91 500.89 C 2208.35 500.08 2210.80 499.33 2213.30 498.65 C 2212.63 500.00 2212.02 501.36 2211.38 502.71 C 2212.90 504.20 2214.39 505.72 2215.90 507.26 C 2215.63 508.35 2215.39 509.46 2215.18 510.57 C 2216.21 511.75 2217.25 512.94 2218.31 514.15 C 2215.17 513.23 2212.04 512.32 2208.87 511.58 C 2209.01 509.04 2209.21 506.51 2209.52 503.99 C 2208.33 503.96 2207.17 503.93 2206.03 503.91 C 2206.00 503.16 2205.94 501.65 2205.91 500.89 Z" />
</g>
</svg>
